<mxfile host="app.diagrams.net" modified="2024-07-21T09:57:05.100Z" agent="Mozilla/5.0 (Windows NT 10.0; Win64; x64) AppleWebKit/537.36 (KHTML, like Gecko) Chrome/126.0.0.0 Safari/537.36" etag="aN5Grvo3ezwQcdGrJVUf" version="24.5.2" type="github">
  <diagram name="Page-1" id="Rn15pCzXk3JLPFEfjFnZ">
    <mxGraphModel dx="1750" dy="928" grid="1" gridSize="10" guides="1" tooltips="1" connect="1" arrows="1" fold="1" page="1" pageScale="1" pageWidth="827" pageHeight="1169" math="0" shadow="0">
      <root>
        <mxCell id="0" />
        <mxCell id="1" parent="0" />
        <mxCell id="GCmicxJ7dON81dpfFU2q-31" value="" style="edgeStyle=orthogonalEdgeStyle;rounded=0;orthogonalLoop=1;jettySize=auto;html=1;" edge="1" parent="1" source="GCmicxJ7dON81dpfFU2q-29" target="GCmicxJ7dON81dpfFU2q-30">
          <mxGeometry relative="1" as="geometry" />
        </mxCell>
        <mxCell id="GCmicxJ7dON81dpfFU2q-29" value="Studi Literatur" style="rounded=0;whiteSpace=wrap;html=1;" vertex="1" parent="1">
          <mxGeometry x="74" y="470" width="120" height="60" as="geometry" />
        </mxCell>
        <mxCell id="GCmicxJ7dON81dpfFU2q-33" value="" style="edgeStyle=orthogonalEdgeStyle;rounded=0;orthogonalLoop=1;jettySize=auto;html=1;" edge="1" parent="1" source="GCmicxJ7dON81dpfFU2q-30" target="GCmicxJ7dON81dpfFU2q-32">
          <mxGeometry relative="1" as="geometry">
            <Array as="points">
              <mxPoint x="384" y="500" />
              <mxPoint x="384" y="440" />
            </Array>
          </mxGeometry>
        </mxCell>
        <mxCell id="GCmicxJ7dON81dpfFU2q-30" value="Rancang Mekanisme" style="rounded=0;whiteSpace=wrap;html=1;" vertex="1" parent="1">
          <mxGeometry x="234" y="470" width="120" height="60" as="geometry" />
        </mxCell>
        <mxCell id="GCmicxJ7dON81dpfFU2q-37" value="" style="edgeStyle=orthogonalEdgeStyle;rounded=0;orthogonalLoop=1;jettySize=auto;html=1;" edge="1" parent="1" source="GCmicxJ7dON81dpfFU2q-32" target="GCmicxJ7dON81dpfFU2q-36">
          <mxGeometry relative="1" as="geometry" />
        </mxCell>
        <mxCell id="GCmicxJ7dON81dpfFU2q-32" value="Desain 3D dan Komponen" style="rounded=0;whiteSpace=wrap;html=1;" vertex="1" parent="1">
          <mxGeometry x="444" y="410" width="120" height="60" as="geometry" />
        </mxCell>
        <mxCell id="GCmicxJ7dON81dpfFU2q-34" value="" style="edgeStyle=orthogonalEdgeStyle;rounded=0;orthogonalLoop=1;jettySize=auto;html=1;exitX=1;exitY=0.5;exitDx=0;exitDy=0;entryX=0;entryY=0.5;entryDx=0;entryDy=0;" edge="1" parent="1" source="GCmicxJ7dON81dpfFU2q-30" target="GCmicxJ7dON81dpfFU2q-35">
          <mxGeometry relative="1" as="geometry">
            <mxPoint x="364" y="510" as="sourcePoint" />
            <mxPoint x="464" y="570" as="targetPoint" />
            <Array as="points">
              <mxPoint x="384" y="500" />
              <mxPoint x="384" y="530" />
            </Array>
          </mxGeometry>
        </mxCell>
        <mxCell id="GCmicxJ7dON81dpfFU2q-39" value="" style="edgeStyle=orthogonalEdgeStyle;rounded=0;orthogonalLoop=1;jettySize=auto;html=1;" edge="1" parent="1" source="GCmicxJ7dON81dpfFU2q-35" target="GCmicxJ7dON81dpfFU2q-38">
          <mxGeometry relative="1" as="geometry" />
        </mxCell>
        <mxCell id="GCmicxJ7dON81dpfFU2q-35" value="Konstruksi Website" style="rounded=0;whiteSpace=wrap;html=1;" vertex="1" parent="1">
          <mxGeometry x="444" y="500" width="120" height="60" as="geometry" />
        </mxCell>
        <mxCell id="GCmicxJ7dON81dpfFU2q-40" style="edgeStyle=orthogonalEdgeStyle;rounded=0;orthogonalLoop=1;jettySize=auto;html=1;entryX=0.5;entryY=0;entryDx=0;entryDy=0;" edge="1" parent="1" source="GCmicxJ7dON81dpfFU2q-36" target="GCmicxJ7dON81dpfFU2q-38">
          <mxGeometry relative="1" as="geometry" />
        </mxCell>
        <mxCell id="GCmicxJ7dON81dpfFU2q-36" value="Pembuatan Prototipe" style="rounded=0;whiteSpace=wrap;html=1;" vertex="1" parent="1">
          <mxGeometry x="644" y="410" width="120" height="60" as="geometry" />
        </mxCell>
        <mxCell id="GCmicxJ7dON81dpfFU2q-42" value="" style="edgeStyle=orthogonalEdgeStyle;rounded=0;orthogonalLoop=1;jettySize=auto;html=1;" edge="1" parent="1" source="GCmicxJ7dON81dpfFU2q-38" target="GCmicxJ7dON81dpfFU2q-41">
          <mxGeometry relative="1" as="geometry" />
        </mxCell>
        <mxCell id="GCmicxJ7dON81dpfFU2q-38" value="Assembly" style="rounded=0;whiteSpace=wrap;html=1;" vertex="1" parent="1">
          <mxGeometry x="644" y="500" width="120" height="60" as="geometry" />
        </mxCell>
        <mxCell id="GCmicxJ7dON81dpfFU2q-44" value="" style="edgeStyle=orthogonalEdgeStyle;rounded=0;orthogonalLoop=1;jettySize=auto;html=1;" edge="1" parent="1" source="GCmicxJ7dON81dpfFU2q-41" target="GCmicxJ7dON81dpfFU2q-43">
          <mxGeometry relative="1" as="geometry" />
        </mxCell>
        <mxCell id="GCmicxJ7dON81dpfFU2q-41" value="Uji Coba" style="rounded=0;whiteSpace=wrap;html=1;" vertex="1" parent="1">
          <mxGeometry x="644" y="590" width="120" height="60" as="geometry" />
        </mxCell>
        <mxCell id="GCmicxJ7dON81dpfFU2q-43" value="Evaluasi" style="rounded=0;whiteSpace=wrap;html=1;" vertex="1" parent="1">
          <mxGeometry x="644" y="680" width="120" height="60" as="geometry" />
        </mxCell>
      </root>
    </mxGraphModel>
  </diagram>
</mxfile>
